<svg xmlns="http://www.w3.org/2000/svg" xmlns:xlink="http://www.w3.org/1999/xlink" width="151.93" height="151.93" viewBox="0 0 151.93 151.93"><defs><style>.a{fill:url(#a);}.b,.c{fill:#fff;}.c{stroke:#dbe1e9;}.d{fill:#676a6d;}.e{stroke:none;}.f{fill:none;}.g{filter:url(#i);}.h{filter:url(#g);}.i{filter:url(#d);}.j{filter:url(#b);}</style><radialGradient id="a" cx="0.5" cy="0.5" r="0.5" gradientUnits="objectBoundingBox"><stop offset="0" stop-color="#d4d4d4"/><stop offset="1" stop-color="#f4f2ff"/></radialGradient><filter id="b" x="0" y="0" width="151.93" height="151.93" filterUnits="userSpaceOnUse"><feOffset dx="5" dy="5" input="SourceAlpha"/><feGaussianBlur stdDeviation="14" result="c"/><feFlood flood-color="#297ee7" flood-opacity="0.11"/><feComposite operator="in" in2="c"/><feComposite in="SourceGraphic"/></filter><filter id="d" x="0" y="0" width="151.93" height="151.93" filterUnits="userSpaceOnUse"><feOffset input="SourceAlpha"/><feGaussianBlur stdDeviation="3" result="e"/><feFlood flood-color="#2f85e9" flood-opacity="0.11" result="f"/><feComposite operator="out" in="SourceGraphic" in2="e"/><feComposite operator="in" in="f"/><feComposite operator="in" in2="SourceGraphic"/></filter><filter id="g" x="5.965" y="5.965" width="140" height="140" filterUnits="userSpaceOnUse"><feOffset dx="5" dy="5" input="SourceAlpha"/><feGaussianBlur stdDeviation="14" result="h"/><feFlood flood-color="#297ee7" flood-opacity="0.11"/><feComposite operator="in" in2="h"/><feComposite in="SourceGraphic"/></filter><filter id="i" x="5.965" y="5.965" width="140" height="140" filterUnits="userSpaceOnUse"><feOffset input="SourceAlpha"/><feGaussianBlur stdDeviation="3" result="j"/><feFlood flood-color="#2f85e9" flood-opacity="0.11" result="k"/><feComposite operator="out" in="SourceGraphic" in2="j"/><feComposite operator="in" in="k"/><feComposite operator="in" in2="SourceGraphic"/></filter></defs><g transform="translate(-612.035 -447.035)"><g data-type="innerShadowGroup"><g class="j" transform="matrix(1, 0, 0, 1, 612.04, 447.04)"><path class="a" d="M33.965,0A33.965,33.965,0,1,1,0,33.965,33.965,33.965,0,0,1,33.965,0Z" transform="translate(37 37)"/></g><g class="i" transform="matrix(1, 0, 0, 1, 612.04, 447.04)"><path class="b" d="M33.965,0A33.965,33.965,0,1,1,0,33.965,33.965,33.965,0,0,1,33.965,0Z" transform="translate(37 37)"/></g></g><g transform="translate(655.429 490.428)"><g data-type="innerShadowGroup"><g class="h" transform="matrix(1, 0, 0, 1, -43.39, -43.39)"><circle class="b" cx="28" cy="28" r="28" transform="translate(42.96 42.96)"/></g><g class="g" transform="matrix(1, 0, 0, 1, -43.39, -43.39)"><circle class="b" cx="28" cy="28" r="28" transform="translate(42.96 42.96)"/></g></g><g class="c" transform="translate(3.571 3.572)"><circle class="e" cx="24" cy="24" r="24"/><circle class="f" cx="24" cy="24" r="23.5"/></g><circle class="d" cx="3" cy="3" r="3" transform="translate(24.571 24.572)"/></g></g></svg>