<svg xmlns="http://www.w3.org/2000/svg" xmlns:xlink="http://www.w3.org/1999/xlink" width="116.689" height="99.656" viewBox="0 0 116.689 99.656"><defs><style>.a{fill:#6b6b6b;}.b{fill:#fff;}.c{filter:url(#c);}.d{filter:url(#a);}</style><filter id="a" x="0" y="0" width="116.689" height="99.656" filterUnits="userSpaceOnUse"><feOffset dx="5" dy="5" input="SourceAlpha"/><feGaussianBlur stdDeviation="14" result="b"/><feFlood flood-color="#297ee7" flood-opacity="0.11"/><feComposite operator="in" in2="b"/><feComposite in="SourceGraphic"/></filter><filter id="c" x="0" y="0" width="116.689" height="99.656" filterUnits="userSpaceOnUse"><feOffset input="SourceAlpha"/><feGaussianBlur stdDeviation="3" result="d"/><feFlood flood-color="#2f85e9" flood-opacity="0.11" result="e"/><feComposite operator="out" in="SourceGraphic" in2="d"/><feComposite operator="in" in="e"/><feComposite operator="in" in2="SourceGraphic"/></filter></defs><g data-type="innerShadowGroup"><g class="d" transform="matrix(1, 0, 0, 1, 0, 0)"><path class="a" d="M6.023,4.466a1,1,0,0,1,1.954,0l5.758,26.32A1,1,0,0,1,12.758,32H1.242a1,1,0,0,1-.977-1.214Z" transform="translate(37 50.98) rotate(-87)"/></g><g class="c" transform="matrix(1, 0, 0, 1, 0, 0)"><path class="b" d="M6.023,4.466a1,1,0,0,1,1.954,0l5.758,26.32A1,1,0,0,1,12.758,32H1.242a1,1,0,0,1-.977-1.214Z" transform="translate(37 50.98) rotate(-87)"/></g></g></svg>